<svg width="221" height="161" viewBox="0 0 221 161" fill="none" xmlns="http://www.w3.org/2000/svg">
<path d="M71.8242 138.573H3.05176e-05V137.011H71.8242V138.573ZM220.156 138.573H125.691V137.011H220.156V138.573ZM67.92 122.96H74.9463V124.52H0.780304V122.96H14.833V94.8542H32.7891V122.96H38.2539V87.0476H67.92V122.96ZM191.27 122.96H220.155V124.52H131.156V122.96H170.972V94.8552H191.27V122.96ZM186.494 89.1882L191.27 94.8542H170.972L175.35 89.1882V83.1443H174.095V76.1179H188.147V83.1443H186.494V89.1882ZM92.1221 57.3806H3.05176e-05V55.8191H92.1221V57.3806ZM220.155 57.3806H191.271V55.8191H220.155V57.3806ZM66.7491 37.0828L61.7295 41.7673H99.9287V43.3289H0.780304V41.7673H16.5059L12.4912 37.0828V30.8376H66.7491V37.0828Z" fill="#BFDDBB"/>
<path d="M113.591 49.5741L105.784 81.5825L144.429 86.2667C152.087 84.9383 151.701 82.9008 149.503 78.8501L142.086 74.1659L140.135 43.7189L113.591 49.5741Z" fill="#7FBB77"/>
<path d="M121.398 64.7976L126.082 56.6003L112.03 43.7189L107.736 86.2667L133.108 95.2447C140.229 96.7399 142.086 95.1632 142.086 88.6088L126.082 77.2887L121.398 64.7976Z" fill="#9FCC99"/>
<path d="M177.998 16.0042L220.156 0V39.8154C207.113 41.9618 200.008 43.7576 188.928 51.5258C178.963 63.76 174.451 67.6618 167.849 70.6528L151.064 74.5563L136.621 63.2362C137.923 48.44 135.253 44.8414 121.008 51.5258L111.639 65.9686V88.6087H100.319L97.1964 58.9424L121.008 21.8594L177.998 16.0042Z" fill="#BFDDBB"/>
<path d="M90.9509 88.9991L86.6571 90.1701L130.766 101.1L128.424 98.3674L131.547 97.1964L132.718 92.5122L90.1702 81.1921L88.2185 86.657L90.9509 88.9991Z" fill="#5FAA55"/>
<path d="M130.708 101.019L86.7234 90.0551C80.9048 113.398 77.6425 126.485 71.824 149.828L115.809 160.792L130.708 101.019Z" fill="#5FAA55"/>
<rect x="92.0623" y="92.824" width="33.9564" height="53.784" transform="rotate(14.9027 92.0623 92.824)" fill="#4C8844"/>
<path d="M121.788 74.5563C129.831 69.4889 133.353 66.0653 138.573 59.3328L151.149 74.1956C153.79 72.3437 151.454 74.5563 151.454 74.5563L151.149 74.1956C149.084 75.6437 143.976 79.5776 132.327 88.9991C105.784 110.468 101.026 88.0695 121.788 74.5563Z" fill="#BFDDBB"/>
</svg>
