<svg width="187" height="132" viewBox="0 0 187 132" fill="none" xmlns="http://www.w3.org/2000/svg">
<path d="M78.925 65.7196L52.2072 76.161L53.4356 97.6581C57.824 100.246 60.9879 101.031 69.4049 99.8078L98.2724 103.493C101.771 102.879 102.531 101.696 100.729 97.6581C106.147 98.2285 105.86 96.2686 103.186 90.9019C111.231 90.8365 108.614 87.3931 106.871 82.9173C111.087 81.8004 112.671 81.1988 109.328 77.3894C100.091 68.0231 93.7529 64.8879 78.925 65.7196Z" fill="#BFDDBB"/>
<path d="M114.631 67.1518C114.632 67.1531 114.632 67.1542 114.634 67.1547C114.635 67.1556 114.636 67.1579 114.636 67.1598L114.634 67.1626C114.634 67.1632 114.634 67.1639 114.634 67.1646L114.634 67.169C114.635 67.1701 114.634 67.1709 114.633 67.1704C114.632 67.1701 114.631 67.1704 114.631 67.1711L92.7785 118.116C91.7209 120.582 89.2112 122.066 86.5988 121.568C79.5677 120.228 74.8224 117.906 69.0519 113.236C66.9114 111.504 66.2597 108.498 67.3362 105.988L89.1468 55.1399C89.1513 55.1295 89.1631 55.1248 89.1734 55.1293C89.1792 55.1318 89.1857 55.1316 89.1912 55.1286L93.4681 52.7886C95.13 51.8793 97.1282 51.8283 98.8722 52.6507L110.394 58.0839C112.308 58.9861 113.663 60.8192 113.988 62.9443L114.631 67.1518Z" fill="#5FAA55"/>
<path d="M77.0825 83.2244C70.9172 89.8921 66.9537 91.7608 58.9635 91.8232L75.2399 72.783C81.552 75.2051 85.4516 75.6388 92.7446 75.5469C96.8349 77.688 98.1077 79.1021 92.7446 83.2244H77.0825Z" fill="#BFDDBB"/>
<path d="M54.0499 76.1611H6.10352e-05V105.643L55.2783 98.2724L54.0499 76.1611Z" fill="#BFDDBB"/>
<path d="M104.648 77.477L104.721 77.3896L110.249 74.6257L89.3664 119.155C77.5395 119.148 74.2027 115.6 68.4835 109.021L77.6966 88.4453C81.0026 88.0374 82.8507 87.9115 85.9883 90.595C90.2332 90.9269 91.3104 90.0864 93.0516 88.4453C94.8381 84.7986 96.4005 83.2696 100.422 81.6891C102.301 80.2639 103.158 79.2457 104.648 77.477Z" fill="#396633"/>
<path d="M97.9652 73.3971C99.2532 73.878 99.9408 74.3345 101.036 75.8539V71.8616C98.4384 69.7739 97.7688 70.1153 97.9652 73.3971Z" fill="#396633"/>
<path d="M104.414 81.3818L105.336 27.332H109.021C109.837 30.7637 110.3 32.6377 109.635 35.9309C108.622 38.9026 108.331 40.6088 109.635 43.9155L110.249 74.6256L104.414 81.3818Z" fill="#396633"/>
<path d="M103.8 28.5605L102.265 17.1978H112.399L110.863 28.5605H103.8Z" fill="#9FCC99"/>
<path d="M136.784 0C150.454 0.000248744 161.535 11.0821 161.535 24.752V131.439H90.902C90.902 125.334 95.8518 120.384 101.958 120.384H118.386C119.4 119.717 120.247 118.873 120.998 117.732V25.4463C119.277 23.0333 117.606 21.324 115.401 19.6543H100.784C96.683 19.6541 93.359 16.3294 93.359 12.2285V7.42578C93.359 3.32491 96.683 0.000227533 100.784 0H136.784Z" fill="#BFDDBB"/>
<path d="M161.352 0C175.022 0.000204421 186.103 11.0821 186.103 24.752V131.439H115.47C115.47 125.334 120.42 120.384 126.526 120.384H142.954C143.968 119.717 144.815 118.873 145.566 117.732V25.4463C143.845 23.0333 142.174 21.324 139.969 19.6543H125.353C121.252 19.6543 117.927 16.3295 117.927 12.2285V7.42578C117.927 3.32477 121.252 0 125.353 0H161.352Z" fill="#9FCC99"/>
<path d="M97.0763 48.0168C96.7656 45.9636 97.3531 45.2465 98.7333 44.157L116.657 52.6298C116.831 54.4311 116.264 55.2032 115 56.4896C115.294 58.355 114.789 59.1458 113.343 60.3495C105.87 58.4485 101.913 56.6876 95.4192 51.8767C95.4544 50.1547 95.7285 49.2785 97.0763 48.0168Z" fill="#4C8844"/>
<path d="M97.6581 46.0652C99.9498 47.4897 101.348 48.2907 105.336 49.7504M114.549 58.9634C110.636 57.595 108.491 56.7804 105.336 54.664" stroke="#BFDDBB" stroke-width="1.23759" stroke-linecap="round"/>
</svg>
