<svg width="187" height="132" viewBox="0 0 187 132" fill="none" xmlns="http://www.w3.org/2000/svg">
<path d="M78.9251 65.7196L52.2073 76.161L53.4357 97.6581C57.8241 100.246 60.9879 101.031 69.4049 99.8078L98.2724 103.493C101.771 102.879 102.531 101.696 100.729 97.6581C106.147 98.2285 105.86 96.2686 103.186 90.9019C111.231 90.8365 108.614 87.3931 106.871 82.9173C111.087 81.8004 112.672 81.1988 109.328 77.3894C100.091 68.0231 93.7529 64.8879 78.9251 65.7196Z" fill="#BFDDBB"/>
<path d="M114.632 67.1532C114.632 67.1543 114.633 67.1552 114.634 67.1557C114.635 67.1564 114.636 67.1583 114.635 67.1599L114.634 67.1623C114.634 67.163 114.634 67.1637 114.634 67.1644L114.634 67.1688C114.635 67.1699 114.633 67.1707 114.632 67.1702C114.632 67.1699 114.631 67.1702 114.631 67.1709L92.7785 118.116C91.7208 120.581 89.2111 122.066 86.5987 121.568C79.5674 120.227 74.8217 117.906 69.051 113.236C66.9105 111.503 66.2588 108.497 67.3353 105.987L89.1468 55.1397C89.1512 55.1293 89.163 55.1246 89.1734 55.1291C89.1792 55.1316 89.1857 55.1313 89.1911 55.1283L93.468 52.7883C95.13 51.8791 97.1281 51.8281 98.8721 52.6505L110.394 58.0837C112.308 58.9859 113.663 60.8189 113.988 62.9439L114.632 67.1532Z" fill="#5FAA55"/>
<path d="M77.0823 83.2242C70.917 89.8919 66.9536 91.7606 58.9634 91.823L75.2397 72.7827C81.5519 75.2049 85.4515 75.6385 92.7445 75.5466C96.8348 77.6877 98.1076 79.1019 92.7445 83.2242H77.0823Z" fill="#BFDDBB"/>
<path d="M54.0498 76.1609H0V105.643L55.2782 98.2722L54.0498 76.1609Z" fill="#BFDDBB"/>
<path d="M103.8 28.5605L102.265 17.1978H112.399L110.863 28.5605H103.8Z" fill="#9FCC99"/>
<path d="M136.784 0C150.454 0.000259052 161.535 11.0821 161.535 24.752V131.439H90.9019C90.9019 125.334 95.8517 120.384 101.958 120.384H118.386C119.4 119.717 120.247 118.872 120.998 117.731V25.4473C119.277 23.0339 117.606 21.3241 115.401 19.6543H100.784C96.6829 19.6541 93.3589 16.3294 93.3589 12.2285V7.42578C93.3589 3.32491 96.6829 0.000216711 100.784 0H136.784Z" fill="#BFDDBB"/>
<path d="M161.352 0C175.022 0.000134327 186.104 11.082 186.104 24.752V131.439H115.47C115.47 125.334 120.42 120.384 126.526 120.384H142.954C143.968 119.717 144.815 118.873 145.566 117.732V25.4463C143.845 23.0333 142.174 21.324 139.969 19.6543H125.352C121.251 19.654 117.927 16.3294 117.927 12.2285V7.42578C117.927 3.32493 121.251 0.000260259 125.352 0H161.352Z" fill="#9FCC99"/>
<path d="M97.0761 48.0168C96.7654 45.9636 97.3529 45.2465 98.7332 44.157L116.657 52.6298C116.831 54.4311 116.264 55.2032 115 56.4896C115.294 58.355 114.788 59.1458 113.343 60.3495C105.87 58.4485 101.913 56.6876 95.4191 51.8767C95.4542 50.1547 95.7284 49.2785 97.0761 48.0168Z" fill="#4C8844"/>
<path d="M97.6582 46.0652C99.9498 47.4897 101.348 48.2907 105.336 49.7504M114.549 58.9634C110.636 57.595 108.491 56.7804 105.336 54.664" stroke="#BFDDBB" stroke-width="1.23759" stroke-linecap="round"/>
</svg>
