<svg width="196" height="168" viewBox="0 0 196 168" fill="none" xmlns="http://www.w3.org/2000/svg">
<path d="M21.8406 138.728C22.8354 137.402 24.3965 136.621 26.0544 136.621H163.654C165.312 136.621 166.873 137.402 167.868 138.728L183.388 159.422C185.992 162.894 183.515 167.849 179.174 167.849H10.5344C6.19401 167.849 3.7164 162.894 6.32065 159.422L21.8406 138.728Z" fill="#BFDDBB"/>
<path d="M109.688 119.837C112.27 111.841 110.771 106.131 107.345 95.635H113.591C117.095 103.317 118.983 107.684 116.714 119.837C115.533 125.814 115.033 129.162 119.056 135.06C122.512 142.855 122.374 146.622 121.008 153.016C119.007 159.759 120.257 162.533 125.301 166.288H106.174C106.081 159.534 105.86 155.619 109.688 151.845C111.861 145.803 111.087 142.533 109.73 136.8L109.688 136.621C107.159 132.57 106.656 129.392 109.688 119.837Z" fill="#4C8844"/>
<path d="M147.551 18.7368L195.173 4.29395L195.564 56.6004L156.139 62.846L147.551 66.3591L131.157 79.6309L97.9771 30.4472H86.2667L70.6528 46.0611C63.4742 44.8213 62.7572 42.8873 66.7493 37.4734L71.8239 23.4209L80.4115 16.3947L96.4157 10.1491C99.765 7.75888 102.573 7.87328 108.907 10.1491L131.157 18.7368C136.425 20.4434 139.74 20.8595 147.551 18.7368Z" fill="#BFDDBB"/>
<path d="M120.617 97.5867H99.1483L89.78 68.701L67.1398 39.8154C57.3254 38.7729 52.7766 36.721 48.4032 27.3243L83.9248 0C88.6508 8.55646 90.6198 12.3251 92.122 16.0042L114.372 51.9161C118.929 58.8147 121.883 61.8015 128.034 65.1879C135.119 70.917 137.965 73.5292 142.086 77.679L120.617 97.5867Z" fill="#5FAA55"/>
<path d="M83.1441 9.75867L56.6005 28.8857L67.1398 37.4733L94.4641 78.0694L110.859 93.2929H118.275L134.67 74.9466L115.543 60.5038L107.346 49.574L98.7579 39.8154L83.1441 9.75867Z" fill="#4C8844"/>
<path d="M60.894 56.21C52.6571 49.477 52.8333 45.7172 58.9423 39.0347L58.9806 39.0381C67.2243 39.7618 71.8576 40.1685 81.9727 37.083C90.0648 38.0493 91.1688 40.1831 87.8279 46.4513C98.1643 46.8184 98.242 49.973 97.1963 56.21C106.129 59.8028 106.488 62.9327 101.49 69.8721C106.223 70.3904 107.805 71.6479 107.736 76.508C104.048 83.3607 101.975 87.1998 93.6832 91.3412C83.6001 93.398 82.3278 90.6126 81.9727 83.9246C70.9728 82.6538 69.8763 79.0943 70.2623 71.4335C60.6885 69.5412 58.9172 66.012 60.894 56.21Z" fill="#BFDDBB"/>
<path d="M96.4157 10.149C99.765 7.75872 102.573 7.87312 108.907 10.149L137.793 21.4691L129.986 51.9161C113.07 49.6648 105.883 45.2154 97.9771 30.447H86.2667L70.6528 46.0609C63.4742 44.8211 62.7572 42.8871 66.7493 37.4733L71.8239 23.4208L80.4115 16.3945L96.4157 10.149Z" fill="#BFDDBB"/>
</svg>
