<svg width="187" height="145" viewBox="0 0 187 145" fill="none" xmlns="http://www.w3.org/2000/svg">
<path d="M76.1891 38.9195L42.8483 31.6764L30.7188 53.2002C33.5201 58.5388 36.2112 61.346 45.4304 65.6197L61.1131 88.0844C65.8882 89.3145 68.6934 91.2882 68.7907 86.856C74.7468 87.7159 78.011 89.554 77.3894 84.3991C85.588 87.096 85.1219 86.5758 85.9883 82.8637C88.8867 84.543 93.5043 85.435 93.9728 79.4854C90.5131 64.4695 91.6072 47.7247 76.1891 38.9195Z" fill="#BFDDBB"/>
<path d="M106.815 78.3813C106.814 78.3825 106.813 78.3843 106.813 78.386C106.814 78.3887 106.812 78.3914 106.81 78.392L106.806 78.3929C106.805 78.393 106.805 78.3933 106.804 78.3938L106.801 78.3968C106.8 78.3975 106.799 78.3971 106.799 78.396C106.799 78.3953 106.798 78.3948 106.797 78.395L43.7702 92.9277C41.1383 93.5346 38.3976 92.3737 37.1585 89.9775C32.915 81.7716 31.5784 75.3999 31.7919 65.9535C31.8541 63.203 33.8383 60.8894 36.516 60.272L99.4414 45.7626C99.4543 45.7596 99.4671 45.7675 99.4704 45.7803C99.4722 45.7873 99.477 45.7931 99.4835 45.7962L105.216 48.4982C106.929 49.3059 108.174 50.8594 108.593 52.7119L112.212 68.7367C112.672 70.7734 112.075 72.91 110.625 74.4187L106.815 78.3813Z" fill="#5FAA55"/>
<path d="M113.883 47.6067C114.231 50.7781 114.505 52.6656 116.043 57.4799M114.251 72.6409C112.683 67.9618 111.882 65.3515 111.546 60.878" stroke="black" stroke-width="1.23759" stroke-linecap="round"/>
<path d="M44.5297 32.1918L1.2284 22.6716L0 51.5391L32.5527 53.6888L44.5297 32.1918Z" fill="#BFDDBB"/>
<path d="M99.5007 63.5161C105.22 62.2611 108.329 61.8704 113.627 61.9806L115.47 67.2013C111.636 70.7979 111.885 72.8125 104.721 76.4144L41.1515 91.7694C32.6999 82.8273 32.5378 76.8075 34.0882 65.6658L42.0728 63.5161C49.385 63.5147 53.2546 63.6009 58.3492 64.4374C74.4079 66.3106 83.4154 66.5424 99.5007 63.5161Z" fill="#396633"/>
<ellipse cx="138.81" cy="103.746" rx="47.2936" ry="7.06332" fill="#9FCC99"/>
<path d="M121.919 67.5085L119.462 66.5872L117.927 61.9807C121.789 62.8869 123.909 63.0804 128.368 68.1227C130.62 72.1039 131.307 74.6182 131.746 79.4855C131.531 94.2625 132.029 102.081 138.195 112.038H124.99C122.903 98.8399 123.25 91.9677 124.99 80.0997C124.746 72.5472 123.735 70.7257 121.919 67.5085Z" fill="#396633"/>
<path d="M114.549 142.441C96.625 131.226 91.0438 122.764 91.5161 103.746C128.301 110.911 149.119 110.833 186.41 103.746C184.869 123.013 179.722 131.571 162.149 142.441C141.524 144.816 131.391 144.479 114.549 142.441Z" fill="#BFDDBB"/>
<path d="M111.677 48.4012C113.332 46.6848 114.412 46.7493 116.404 47.3126L121.568 70.2717C120.044 71.6836 118.929 71.677 116.84 71.3603C115.345 72.9311 114.256 72.9957 112.113 72.4488C108.467 64.0054 107.226 59.012 106.949 49.4897C108.551 48.3324 109.55 47.9879 111.677 48.4012Z" fill="#4C8844"/>
<path d="M65.0375 53.6755C54.4902 52.4049 49.9228 49.9161 44.1065 42.3364L73.2672 44.6965C75.5997 52.3935 78.0135 56.4138 83.3544 63.3079C84.3427 68.691 83.9656 70.8832 76.3266 68.6176L65.0375 53.6755Z" fill="#BFDDBB"/>
</svg>
