<svg width="204" height="174" viewBox="0 0 204 174" fill="none" xmlns="http://www.w3.org/2000/svg">
<path d="M9.36833 125.692L0 122.569C11.4994 77.9253 21.8906 57.3025 43.7188 24.2015L52.6968 28.4954L9.36833 125.692Z" fill="#BFDDBB"/>
<path d="M12.8816 173.704L8.58777 126.472L147.551 124.911L143.648 173.704H12.8816Z" fill="#BFDDBB"/>
<ellipse cx="78.0695" cy="125.301" rx="69.4817" ry="10.9297" fill="#9FCC99"/>
<ellipse cx="30.9773" cy="76.82" rx="53.8693" ry="7.17991" transform="rotate(-66.8109 30.9773 76.82)" fill="#9FCC99"/>
<path d="M64.7976 109.297C59.9042 107.405 57.3723 105.798 53.8679 100.319C58.665 97.6332 61.4825 95.3568 66.7494 89.7798C66.5372 85.7437 66.6457 83.476 74.9466 79.2404C80.2175 75.0724 80.7972 70.7783 81.9729 63.2362C82.7993 59.1611 83.9845 57.3629 87.4377 55.0389L103.832 67.9204C106.857 74.553 111.21 77.056 121.398 80.4115L113.981 87.0474C113.272 91.7276 112.471 94.0589 106.955 95.2447C104.072 96.4517 102.525 97.2447 101.49 101.49C101.774 108.74 101.113 111.648 96.8061 112.42C92.4956 117.23 90.5513 120.639 87.4377 127.253C83.5715 123.358 81.429 121.282 77.6791 117.885C72.973 111.444 70.0565 110.477 64.7976 109.297Z" fill="#5FAA55"/>
<path d="M88.2187 76.8983L85.4863 68.3107C85.6096 79.2605 84.9929 84.5164 79.6311 90.9508L85.4863 87.4377C88.2992 84.5816 88.8365 82.2288 88.2187 76.8983Z" fill="#4C8844"/>
<path d="M91.1086 109.857C91.1086 109.857 91.1086 109.857 91.1086 109.857C91.3463 109.484 91.4156 109.03 91.5129 108.61C91.607 108.158 91.6847 107.707 91.756 107.252C92.1627 104.567 92.3332 101.875 92.4645 99.2331C92.5022 98.5256 92.5353 97.8173 92.5904 97.1478C92.6199 96.8064 92.6523 96.5023 92.7154 96.2296C92.8316 95.6751 93.0582 95.0988 93.2015 94.9536C93.5115 94.6591 94.2318 94.2161 94.8044 93.8943C95.1284 93.7128 95.4716 93.547 95.8313 93.3869C96.0107 93.3069 96.1949 93.2283 96.3866 93.1457C96.5944 93.0492 96.7269 93.0213 97.0917 92.796C97.4715 92.4748 98.2582 92.2325 98.9446 91.832C99.4672 91.5337 99.9088 91.0666 100.185 90.5896C100.273 90.4484 100.352 90.3104 100.443 90.187C100.532 90.0729 100.645 89.9599 100.744 89.8291C100.816 89.7344 100.854 89.6318 100.93 89.5492C100.831 89.6036 100.755 89.6949 100.668 89.7532C100.545 89.839 100.406 89.9097 100.269 90.0031C100.125 90.1089 100 90.2252 99.8789 90.3321C99.483 90.6962 99.0695 90.9301 98.5995 91.061C97.9516 91.2567 97.2561 91.2437 96.3686 91.6673C96.3775 91.6444 96.1096 91.7249 95.931 91.7613C95.7343 91.8063 95.5275 91.8546 95.321 91.9079C94.9058 92.0149 94.4844 92.1433 94.0656 92.3079C93.3119 92.6244 92.6974 92.8501 91.8616 93.4869C91.0473 94.2716 90.8907 95.0294 90.6826 95.7365C90.5708 96.1677 90.5242 96.589 90.4911 96.9701C90.4289 97.7293 90.4166 98.4534 90.4175 99.1832C90.4328 101.894 90.6859 104.563 90.9784 107.232C91.0252 107.685 91.0734 108.134 91.1133 108.586C91.1414 109.011 91.2116 109.439 91.1086 109.857Z" fill="#4C8844"/>
<path d="M88.2231 61.8618C88.3849 62.3676 88.6108 62.8494 88.828 63.333C88.8788 63.444 88.9303 63.5548 88.9826 63.6657C89.2555 64.2465 89.7022 64.7364 90.1294 65.1635C90.8367 65.8767 91.6476 66.5315 92.4681 67.0887C93.4435 67.7649 94.4713 68.3441 95.5425 68.8475C96.428 69.2694 97.4845 69.723 98.1824 70.0705C98.7075 70.3833 99.2021 70.8692 99.6376 71.4253C99.6659 71.4616 99.6963 71.503 99.7272 71.5476C100.011 71.9619 100.296 72.5336 100.572 73.0933C100.835 73.6037 100.94 74.3018 101.241 75.2107C101.825 76.5828 102.655 77.2339 103.466 77.9936C103.999 78.4359 104.349 78.4609 104.694 78.5843C105.033 78.6859 105.351 78.7755 105.664 78.8787C106.416 79.1355 107.223 79.2847 107.982 79.3192C108.384 79.3535 108.995 79.5232 109.53 79.58L109.561 79.5857C109.836 79.5893 110.111 79.5898 110.385 79.5893C110.771 79.5887 111.157 79.5857 111.543 79.5886C111.687 79.5875 111.831 79.5825 111.971 79.5617C111.971 79.5617 111.971 79.5617 111.971 79.5617C111.83 79.5448 111.694 79.513 111.557 79.4781C111.184 79.376 110.808 79.2831 110.432 79.1918C110.166 79.1272 109.9 79.0635 109.635 78.999L109.667 79.0047C109.157 78.8296 108.771 78.5972 108.131 78.3977C107.427 78.2205 106.796 77.9743 106.186 77.6497C105.863 77.4815 105.531 77.3302 105.224 77.1873C104.93 77.056 104.598 76.8676 104.618 76.8335C103.972 76.0993 103.266 75.2116 103.094 74.605C102.933 74.0159 102.86 73.1259 102.449 72.2082C102.171 71.6036 101.901 71.0031 101.459 70.348C101.408 70.2742 101.353 70.1993 101.293 70.1225C100.735 69.4196 100.059 68.7552 99.1781 68.2808C98.0493 67.7728 97.2186 67.5107 96.2428 67.1517C95.2055 66.7815 94.1747 66.3602 93.1827 65.8788C92.3066 65.463 91.4908 65.0165 90.6864 64.4849C90.1972 64.1623 89.7462 63.8451 89.3957 63.4087C89.3199 63.3137 89.2445 63.219 89.1695 63.1242C88.8466 62.7098 88.5093 62.3023 88.2231 61.8618Z" fill="#4C8844"/>
<path d="M98.7578 33.1795L104.613 22.2498L122.179 23.4208L109.688 33.1795C107.605 39.7123 106.461 43.1386 104.613 47.232C97.4258 53.232 95.2547 53.409 95.6351 46.4513C96.4386 44.4714 97.1668 41.2237 98.7578 33.1795Z" fill="#9FCC99"/>
<path d="M121.788 29.6665C127.235 30.8574 130.657 30.6486 137.012 29.6665L121.008 20.6885C115.726 25.3132 112.841 28.0124 108.517 33.9603C108.369 39.4003 107.736 44.89 109.688 46.061C111.639 47.2321 116.179 44.2318 117.495 33.9603C117.815 31.0827 118.873 30.247 121.788 29.6665Z" fill="#7FBB77"/>
<path d="M172.143 8.97798L203.371 0V33.1795L176.437 37.8636C164.276 48.3793 156.672 51.9656 140.915 51.9161L122.179 60.5038C102.874 65.3026 105.126 60.5934 115.152 48.7934L130.376 39.8154C135.295 32.816 133.837 29.7414 127.644 24.9822C116.893 24.7633 110.779 24.9363 99.1482 27.7146L83.9247 40.9864C73.468 45.0078 72.6388 42.8606 70.2626 39.8154L92.9027 17.5656L124.521 4.68416L172.143 8.97798Z" fill="#BFDDBB"/>
</svg>
