<svg width="256" height="143" viewBox="0 0 256 143" fill="none" xmlns="http://www.w3.org/2000/svg">
<path d="M42.5478 32.3989C21.1314 39.735 14.4591 35.6951 0 32.3989V142.867H255.287V35.5217C243.993 38.9408 237.747 38.4716 226.792 32.3989C214.597 25.5193 207.759 26.0607 195.564 32.3989C180.015 36.2273 171.297 36.7915 155.748 32.3989C140.504 28.5669 131.958 26.5304 116.714 32.3989C98.9288 37.7882 90.4027 37.3266 76.8983 32.3989C63.9807 26.755 56.5445 25.7832 42.5478 32.3989Z" fill="#BFDDBB"/>
<path d="M146.676 15.0203L142.457 13.9342L176.156 43.0421L175.271 39.814L178.473 40.3542L181.456 37.2379L149.277 8.55265L145.288 11.9154L146.676 15.0203Z" fill="#5FAA55"/>
<path d="M176.14 42.952L142.563 13.8752C127.711 29.413 119.385 38.1244 104.532 53.6622L138.109 82.7389L176.14 42.952Z" fill="#5FAA55"/>
<rect width="33.2475" height="48.0964" transform="matrix(0.746433 0.665461 -0.703381 0.710813 146.035 18.5288)" fill="#4C8844"/>
<path d="M20.8788 50.8414C20.8788 50.8414 20.8788 50.8414 20.8788 50.8414C21.599 51.111 22.319 51.3755 23.0396 51.6345C24.9541 52.3216 26.8707 52.9742 28.8183 53.5592C31.605 54.3117 34.3152 54.3584 37.0182 54.2412C39.1687 54.1557 41.171 53.1611 42.2546 53.0469C42.7945 52.9679 43.3199 52.8386 43.8042 52.686C45.4689 52.1365 46.6307 51.5168 47.8928 51.0694C49.1119 50.5985 50.4515 50.5317 51.9524 50.8017C54.494 51.1679 56.688 52.2109 59.8307 52.3073L59.7626 52.2988C60.7369 52.3168 61.7254 52.3635 62.7262 52.3929C63.013 52.401 63.3006 52.4074 63.5883 52.4105L63.6131 52.4138C64.1118 52.3702 64.5798 52.2784 65.0546 52.1918C65.0546 52.1918 65.0546 52.1918 65.0546 52.1918C64.5824 52.1028 64.1022 52.0224 63.6564 51.9042L63.6812 51.9075C63.4139 51.8082 63.1473 51.7077 62.8803 51.6072C61.9505 51.2565 61.011 50.9076 60.0434 50.6052L59.9753 50.5967C57.9009 49.9607 55.4455 48.284 52.8646 47.4647C51.0235 46.8016 48.736 46.5685 46.6403 47.2106C45.1162 47.6372 43.6505 48.3134 42.541 48.666C42.2134 48.769 41.9104 48.845 41.6088 48.8964C39.2012 49.3797 38.0308 50.2199 36.6193 50.4028C34.1553 50.7848 31.615 51.1497 29.2553 51.079C27.2497 50.9646 25.2178 50.873 23.1823 50.8467C22.4156 50.8363 21.6478 50.8344 20.8788 50.8414Z" fill="#9FCC99"/>
<path d="M20.686 90.0017C22.2431 90.0258 23.8052 90.0357 25.3685 89.9824C25.8925 89.9651 26.4139 89.9426 26.9384 89.9144C29.7689 89.7794 32.67 89.1684 35.3221 88.5034C36.4829 88.2401 37.79 88.4445 39.5515 88.0594C42.4278 87.3331 45.2279 86.6067 48.0625 85.8773C50.2875 85.303 52.4853 84.4966 54.5622 83.4986C58.0413 81.8185 60.948 80.8794 65.2282 79.7837C65.4523 79.6978 65.673 79.6216 65.8916 79.5558C66.9824 79.2031 68.3331 79.1796 69.9588 78.9922C72.5572 78.6839 74.9994 78.797 77.6291 79.3868C79.4388 79.7528 81.5288 80.6993 83.7169 81.3761C85.2937 81.8592 86.8343 82.6083 88.4927 83.3854C90.3504 84.3257 92.571 84.3086 93.8511 84.546C95.2455 84.9078 96.5937 84.8305 97.6179 84.9873C100.142 85.332 102.393 85.1524 104.735 85.0584C105.13 85.0395 105.521 84.994 105.905 84.923C106.965 84.7371 107.932 84.311 108.875 83.9673C109.127 83.8805 109.378 83.7935 109.63 83.7063C109.883 83.6187 110.135 83.5309 110.388 83.4429C110.124 83.4841 109.859 83.5255 109.595 83.5672C109.332 83.6086 109.069 83.6502 108.806 83.6921C107.781 83.8749 106.802 84.1177 105.822 84.1267C105.465 84.1338 105.112 84.1176 104.761 84.0786C102.485 83.8171 100.09 83.6165 98.0723 83.054C96.6916 82.6734 95.535 82.6016 94.5704 82.2085C92.4958 81.605 91.1157 81.5117 89.8937 80.7282C88.3605 79.8219 86.7223 78.8296 84.8891 78.1078C82.9006 77.3374 81.013 76.2712 78.5131 75.5985C75.7177 74.8062 72.4834 74.5211 69.5163 74.8414C68.1622 74.99 66.4676 74.97 64.6764 75.521C64.3463 75.6204 64.0241 75.7328 63.7122 75.8536C60.5507 76.5961 56.1354 78.1271 52.7919 80.0055C50.9505 81.0012 49.0504 81.834 47.0594 82.5092C44.2843 83.446 41.4853 84.4499 38.7777 85.4547C37.8252 85.8218 36.255 85.8321 34.7083 86.361C32.0393 87.3914 29.5255 88.3026 26.8009 88.8738C26.293 88.9819 25.7873 89.0862 25.2778 89.1869C23.7587 89.4897 22.2235 89.7456 20.686 90.0017Z" fill="#9FCC99"/>
<path d="M150.127 117.298C151.469 117.439 152.818 117.537 154.174 117.581C157.049 117.679 159.953 117.514 162.823 117.138C165.042 116.852 167.176 116.206 169.206 115.58C171.796 114.772 174.297 113.894 176.782 113.221C179.159 112.575 181.559 112.121 183.975 111.898C185.725 111.734 187.461 111.706 189.221 111.806C189.771 111.836 190.323 111.878 190.878 111.929C194.261 112.222 197.278 112.709 201.022 113.136C203.022 113.233 204.756 113.411 206.634 114.028C209.666 114.757 211.865 114.366 214.339 114.297C217.576 114.108 220.799 113.812 224.004 113.508L224.161 113.484C224.556 113.318 224.948 113.148 225.338 112.973C226.13 112.618 226.908 112.244 227.688 111.878C228.122 111.687 228.581 111.51 229.026 111.318C229.026 111.318 229.026 111.318 229.026 111.318C228.548 111.414 228.076 111.492 227.592 111.596C226.749 111.8 225.914 112.017 225.08 112.215C224.669 112.313 224.259 112.407 223.848 112.497L224.005 112.473C220.779 112.191 217.556 111.983 214.358 111.748C212.045 111.547 209.353 111.465 207.747 110.855C205.786 109.985 203.418 109.521 201.323 109.305C198.35 108.761 194.675 108.063 191.286 107.743C190.679 107.682 190.068 107.632 189.454 107.598C187.49 107.487 185.486 107.548 183.53 107.79C180.839 108.117 178.197 108.757 175.67 109.635C173.042 110.549 170.574 111.677 168.152 112.737C166.2 113.586 164.334 114.418 162.382 114.963C159.676 115.724 156.932 116.347 154.126 116.782C152.803 116.989 151.469 117.158 150.127 117.298Z" fill="#9FCC99"/>
<path d="M203.562 48.0925C204.235 48.0165 204.905 47.9335 205.571 47.8492C206.93 47.6802 208.288 47.4874 209.566 47.4212C212.323 47.3742 215.374 47.9169 218.145 48.4191C218.763 48.519 219.594 49.2097 221.352 49.7146C221.669 49.7963 221.99 49.8821 222.313 49.9703C223.276 50.2336 224.259 50.5158 225.255 50.7908C228.366 51.3998 230.384 50.9949 232.845 50.6243L232.982 50.6072C234.447 50.1868 235.845 49.7927 237.327 49.4774L237.299 49.4785C238.364 49.2822 239.457 49.0908 240.544 48.8798C241.206 48.7521 241.867 48.6187 242.529 48.4783C242.529 48.4783 242.529 48.4783 242.529 48.4783C241.867 48.3378 241.206 48.2043 240.543 48.0792C239.45 47.8739 238.361 47.6865 237.248 47.5436L237.221 47.5448C235.643 47.3848 234.004 47.4045 232.454 47.5087L232.591 47.4916C230.493 47.4065 227.854 47.2703 226.483 46.8698C225.486 46.5212 224.474 46.1928 223.423 45.9054C223.07 45.8091 222.713 45.7177 222.351 45.6331C221.75 45.5601 220.555 44.7218 218.742 44.4845C215.492 44.237 212.375 44.2636 209.123 45.2933C207.756 45.7884 206.535 46.4253 205.323 47.088C204.731 47.4139 204.146 47.75 203.562 48.0925Z" fill="#9FCC99"/>
<path d="M129.205 52.4031C117.011 53.2964 98.7578 43.4252 97.9771 48.1093C97.1964 52.7935 87.4377 78.5564 87.4377 78.5564L186.586 82.4598L178.779 48.1093C171.998 51.5192 167.567 52.9527 153.016 50.4514C146.806 47.8234 143.06 46.6409 129.205 52.4031Z" fill="#BFDDBB"/>
<path d="M100.115 49.8287C99.6982 49.6884 99.2702 49.5676 98.8397 49.4642C97.6552 49.1957 96.4855 48.9875 95.0965 49.1592C94.2451 49.2535 93.2742 49.4759 92.3588 49.9473C89.8401 51.4913 89.8773 54.0949 89.7852 55.6388C89.7785 56.1034 89.8483 56.5857 89.9892 57.0327C90.6145 58.8778 91.9181 59.7303 92.9613 60.3299C94.6488 61.2944 96.9474 61.8892 98.6898 61.8706L98.7661 61.8909C99.5532 61.8661 100.452 61.9544 101.345 62.0736L101.36 62.0802C101.388 62.0836 101.416 62.0869 101.445 62.09C101.925 62.1569 102.393 62.0801 102.816 61.9819C102.816 61.9819 102.816 61.9819 102.816 61.9819C102.408 61.8002 102.036 61.6118 101.744 61.3474C101.725 61.3315 101.706 61.3155 101.687 61.2991L101.702 61.3057C100.981 60.6816 100.214 60.1236 99.2694 59.6905L99.3457 59.7108C97.5591 58.8296 96.4488 58.0582 95.1028 57.0036C94.4338 56.4896 94.0276 55.9327 94.0104 55.7733C93.9966 55.728 93.9886 55.6953 93.9829 55.6432C93.9319 54.1722 94.0347 53.1076 94.2508 52.7889C94.6729 52.3647 95.2079 51.9813 95.8844 51.5882C96.6757 51.0874 97.7975 50.6692 98.8828 50.2636C99.2865 50.1153 99.6986 49.9694 100.115 49.8287Z" fill="#9FCC99"/>
<path d="M153.358 67.3834C154.077 67.4279 154.791 67.4753 155.503 67.5262C156.488 67.5956 157.467 67.6636 158.452 67.7202C162.241 67.942 166.015 68.0006 169.804 67.7992C171.478 67.7043 173.174 67.5033 174.864 67.1239C175.948 66.8862 177.051 66.5385 177.964 66.2573C180.225 65.5096 181.378 64.4783 182.803 63.7965C183.888 63.2694 185.225 62.4373 185.958 61.8312C186.921 61.3016 187.26 60.286 187.321 59.663C187.395 58.9968 187.321 58.4486 187.232 57.9307C187.048 56.909 186.715 55.9732 186.528 55.158L186.442 54.8448C186.122 54.4531 185.814 54.0409 185.46 53.626C185.255 53.3913 185.034 53.1453 184.735 52.9604L184.72 52.9485C184.317 52.7814 183.984 52.6027 183.645 52.3367C183.845 52.6993 184.146 53.0593 184.441 53.3375L184.425 53.3257C184.573 53.5238 184.676 53.7765 184.775 54.0399C184.945 54.5024 185.101 55.0015 185.286 55.498L185.2 55.1849C185.092 56.2534 185.141 57.1823 185.05 58.0476C185.009 58.47 184.935 58.8766 184.819 59.1366C184.763 59.2648 184.695 59.3465 184.658 59.3501C184.618 59.3565 184.642 59.2826 184.669 59.2431C183.357 59.8585 182.578 60.1336 181.448 60.4955C179.668 61.0626 177.958 62.0547 176.904 62.2748C175.801 62.5448 174.9 62.8015 173.942 63.0124C172.472 63.3425 170.954 63.5964 169.404 63.8272C165.713 64.364 161.982 65.0463 158.288 65.9606C157.326 66.1986 156.372 66.4518 155.417 66.7302C154.727 66.9313 154.038 67.1497 153.358 67.3834Z" fill="#9FCC99"/>
</svg>
