<svg width="243" height="232" viewBox="0 0 243 232" fill="none" xmlns="http://www.w3.org/2000/svg">
<path d="M51.3575 59.7862L44.2192 60.1005L48.0605 66.1253L51.3575 59.7862ZM27.1999 138.234L27.6382 137.798C27.1291 137.287 26.6654 136.684 26.2476 135.994L25.7182 136.315L25.1889 136.635C25.6513 137.399 26.1743 138.082 26.7616 138.671L27.1999 138.234ZM23.8933 131.791L24.4921 131.634C24.1207 130.21 23.8535 128.632 23.688 126.926L23.0721 126.986L22.4562 127.045C22.6269 128.805 22.9038 130.448 23.2945 131.947L23.8933 131.791ZM22.8667 122.103L23.4855 122.107C23.4955 120.555 23.5706 118.936 23.7086 117.266L23.0919 117.215L22.4752 117.164C22.3349 118.863 22.2581 120.513 22.2479 122.099L22.8667 122.103ZM23.6463 112.364L24.2587 112.453C24.4851 110.885 24.7597 109.287 25.0806 107.67L24.4737 107.549L23.8667 107.429C23.5417 109.066 23.2634 110.685 23.0338 112.276L23.6463 112.364ZM25.5418 102.776L26.1423 102.925C26.5294 101.368 26.9563 99.804 27.4214 98.2407L26.8282 98.0643L26.2351 97.8878C25.7648 99.4689 25.3329 101.051 24.9413 102.626L25.5418 102.776ZM28.3271 93.4111L28.9117 93.6141C29.4429 92.084 30.0095 90.5637 30.6099 89.0619L30.0353 88.8321L29.4607 88.6024C28.8531 90.1224 28.2799 91.6605 27.7425 93.2082L28.3271 93.4111ZM31.9576 84.342L32.5203 84.5995C33.2002 83.1143 33.9135 81.6573 34.6583 80.2377L34.1104 79.9502L33.5624 79.6627C32.8068 81.1029 32.0837 82.5799 31.395 84.0844L31.9576 84.342ZM36.5064 75.6968L37.0358 76.0172C37.8879 74.6095 38.7728 73.2541 39.6885 71.9613L39.1835 71.6036L38.6786 71.246C37.7445 72.5647 36.8434 73.9451 35.9771 75.3763L36.5064 75.6968ZM42.1744 67.7388L42.646 68.1394C43.7151 66.8806 44.8175 65.7106 45.9505 64.6427L45.526 64.1925L45.1016 63.7422C43.9322 64.8445 42.7984 66.0481 41.7027 67.3383L42.1744 67.7388Z" fill="#396633"/>
<path d="M183.656 124.659L188.792 119.691L181.922 117.727L183.656 124.659ZM149.734 49.9125L149.695 50.5301C150.415 50.575 151.162 50.7186 151.932 50.9582L152.116 50.3674L152.3 49.7765C151.447 49.5113 150.603 49.3467 149.772 49.2949L149.734 49.9125ZM156.481 52.5446L156.137 53.0585C157.359 53.8785 158.605 54.8826 159.86 56.0505L160.282 55.5974L160.703 55.1444C159.409 53.9404 158.112 52.8934 156.826 52.0307L156.481 52.5446ZM163.672 59.1167L163.207 59.5239C164.228 60.6927 165.245 61.9542 166.249 63.2962L166.744 62.9255L167.24 62.5548C166.219 61.1901 165.182 59.9039 164.138 58.7094L163.672 59.1167ZM169.545 66.9245L169.028 67.2643C169.898 68.5884 170.752 69.9666 171.584 71.39L172.118 71.0778L172.652 70.7656C171.81 69.3243 170.945 67.9275 170.062 66.5847L169.545 66.9245ZM174.483 75.3597L173.934 75.646C174.676 77.068 175.394 78.5222 176.082 80.0009L176.643 79.7398L177.204 79.4787C176.508 77.9831 175.782 76.5121 175.031 75.0734L174.483 75.3597ZM178.606 84.2171L178.034 84.4527C178.65 85.9504 179.234 87.4642 179.78 88.9866L180.363 88.7777L180.945 88.5687C180.392 87.028 179.802 85.4964 179.178 83.9815L178.606 84.2171ZM181.9 93.4137L181.308 93.5938C181.784 95.1566 182.216 96.7202 182.599 98.2768L183.2 98.1288L183.801 97.9807C183.412 96.4015 182.974 94.8165 182.492 93.2335L181.9 93.4137ZM184.226 102.902L183.617 103.013C183.913 104.631 184.149 106.233 184.32 107.808L184.935 107.741L185.551 107.674C185.376 106.067 185.135 104.436 184.835 102.791L184.226 102.902ZM185.259 112.617L184.64 112.63C184.674 114.281 184.624 115.888 184.484 117.438L185.1 117.494L185.717 117.55C185.861 115.949 185.912 114.297 185.877 112.604L185.259 112.617Z" fill="#396633"/>
<path d="M55.2058 177.29L56.9571 184.217L62.0806 179.237L55.2058 177.29ZM136.918 185.085L136.402 184.744C136.005 185.345 135.508 185.921 134.917 186.47L135.338 186.924L135.759 187.377C136.413 186.77 136.976 186.12 137.435 185.425L136.918 185.085ZM131.276 189.626L131.002 189.071C129.683 189.723 128.191 190.303 126.554 190.811L126.737 191.402L126.92 191.993C128.608 191.47 130.162 190.866 131.55 190.181L131.276 189.626ZM121.996 192.59L121.875 191.983C120.353 192.288 118.753 192.541 117.089 192.744L117.164 193.358L117.239 193.973C118.931 193.766 120.562 193.508 122.118 193.197L121.996 192.59ZM112.301 193.796L112.264 193.179C110.683 193.274 109.062 193.328 107.414 193.341L107.419 193.96L107.423 194.578C109.093 194.566 110.735 194.511 112.339 194.414L112.301 193.796ZM102.527 193.879L102.552 193.261C100.95 193.196 99.3312 193.095 97.7062 192.955L97.6533 193.572L97.6005 194.188C99.244 194.329 100.881 194.432 102.503 194.497L102.527 193.879ZM92.7932 193.045L92.8738 192.431C91.2678 192.22 89.6644 191.973 88.0722 191.689L87.9634 192.298L87.8546 192.907C89.466 193.195 91.0883 193.445 92.7127 193.658L92.7932 193.045ZM83.1772 191.323L83.3157 190.72C81.7237 190.355 80.1526 189.951 78.6117 189.508L78.4409 190.103L78.2702 190.698C79.8334 191.147 81.4261 191.556 83.0388 191.926L83.1772 191.323ZM73.7908 188.617L73.9975 188.033C72.4467 187.484 70.9403 186.891 69.489 186.256L69.2409 186.823L68.9927 187.389C70.4731 188.038 72.0072 188.641 73.584 189.2L73.7908 188.617ZM64.8511 184.675L65.148 184.132C63.699 183.34 62.3303 182.497 61.0554 181.603L60.7002 182.11L60.3451 182.617C61.6611 183.539 63.0691 184.406 64.5542 185.218L64.8511 184.675Z" fill="#396633"/>
</svg>
