<svg width="266" height="232" viewBox="0 0 266 232" fill="none" xmlns="http://www.w3.org/2000/svg">
<path d="M74.6972 59.7862L67.5589 60.1005L71.4003 66.1253L74.6972 59.7862ZM50.5396 138.234L50.9779 137.798C50.4688 137.287 50.0051 136.684 49.5873 135.994L49.058 136.315L48.5286 136.635C48.991 137.399 49.514 138.082 50.1013 138.671L50.5396 138.234ZM47.233 131.79L47.8318 131.634C47.4604 130.21 47.1933 128.632 47.0277 126.926L46.4118 126.986L45.7959 127.045C45.9666 128.805 46.2435 130.448 46.6342 131.947L47.233 131.79ZM46.2064 122.103L46.8252 122.107C46.8352 120.555 46.9104 118.936 47.0483 117.266L46.4316 117.215L45.8149 117.164C45.6746 118.863 45.5979 120.513 45.5876 122.099L46.2064 122.103ZM46.986 112.364L47.5984 112.453C47.8248 110.885 48.0994 109.287 48.4203 107.67L47.8134 107.549L47.2064 107.429C46.8814 109.066 46.6031 110.685 46.3735 112.276L46.986 112.364ZM48.8815 102.776L49.482 102.925C49.8691 101.368 50.296 99.8039 50.7611 98.2407L50.168 98.0642L49.5749 97.8878C49.1045 99.4689 48.6726 101.051 48.281 102.626L48.8815 102.776ZM51.6668 93.4111L52.2514 93.614C52.7826 92.0839 53.3492 90.5636 53.9496 89.0618L53.375 88.8321L52.8005 88.6024C52.1928 90.1223 51.6196 91.6604 51.0823 93.2081L51.6668 93.4111ZM55.2973 84.3419L55.86 84.5995C56.5399 83.1142 57.2532 81.6573 57.998 80.2376L57.4501 79.9501L56.9021 79.6626C56.1465 81.1029 55.4235 82.5798 54.7347 84.0843L55.2973 84.3419ZM59.8462 75.6967L60.3755 76.0171C61.2276 74.6094 62.1125 73.254 63.0282 71.9612L62.5233 71.6036L62.0183 71.2459C61.0842 72.5646 60.1831 73.945 59.3168 75.3763L59.8462 75.6967ZM65.5141 67.7388L65.9857 68.1393C67.0548 66.8805 68.1572 65.7106 69.2902 64.6427L68.8658 64.1924L68.4413 63.7421C67.2719 64.8444 66.1381 66.048 65.0424 67.3382L65.5141 67.7388Z" fill="#396633"/>
<path d="M206.996 124.659L212.131 119.691L205.261 117.727L206.996 124.659ZM173.074 49.9124L173.035 50.53C173.755 50.5749 174.502 50.7185 175.272 50.9582L175.456 50.3673L175.64 49.7765C174.787 49.5112 173.943 49.3466 173.112 49.2948L173.074 49.9124ZM179.821 52.5445L179.477 53.0584C180.699 53.8784 181.945 54.8825 183.2 56.0504L183.621 55.5973L184.043 55.1443C182.749 53.9403 181.452 52.8934 180.166 52.0307L179.821 52.5445ZM187.012 59.1166L186.546 59.5239C187.568 60.6926 188.585 61.9542 189.589 63.2962L190.084 62.9255L190.58 62.5547C189.559 61.19 188.522 59.9038 187.478 58.7094L187.012 59.1166ZM192.885 66.9244L192.368 67.2642C193.238 68.5883 194.092 69.9665 194.923 71.3899L195.458 71.0777L195.992 70.7655C195.15 69.3242 194.285 67.9275 193.402 66.5846L192.885 66.9244ZM197.823 75.3597L197.274 75.646C198.016 77.068 198.734 78.5222 199.422 80.0008L199.983 79.7397L200.544 79.4786C199.848 77.9831 199.122 76.5121 198.371 75.0734L197.823 75.3597ZM201.946 84.217L201.374 84.4526C201.99 85.9503 202.574 87.4641 203.12 88.9865L203.702 88.7776L204.285 88.5686C203.732 87.0279 203.142 85.4964 202.518 83.9814L201.946 84.217ZM205.24 93.4136L204.648 93.5938C205.124 95.1565 205.556 96.7201 205.939 98.2767L206.54 98.1287L207.141 97.9807C206.752 96.4015 206.314 94.8164 205.832 93.2334L205.24 93.4136ZM207.566 102.902L206.957 103.013C207.253 104.631 207.489 106.233 207.66 107.808L208.275 107.741L208.89 107.674C208.716 106.067 208.475 104.436 208.175 102.791L207.566 102.902ZM208.598 112.617L207.98 112.63C208.014 114.281 207.964 115.888 207.824 117.438L208.44 117.494L209.057 117.55C209.201 115.949 209.252 114.296 209.217 112.604L208.598 112.617Z" fill="#396633"/>
<path d="M78.5455 177.29L80.2968 184.217L85.4204 179.237L78.5455 177.29ZM160.258 185.084L159.742 184.744C159.344 185.345 158.848 185.921 158.257 186.47L158.678 186.924L159.099 187.377C159.753 186.77 160.316 186.12 160.775 185.425L160.258 185.084ZM154.616 189.626L154.342 189.071C153.022 189.723 151.531 190.303 149.893 190.811L150.076 191.402L150.26 191.993C151.948 191.47 153.502 190.866 154.89 190.181L154.616 189.626ZM145.336 192.59L145.215 191.983C143.693 192.288 142.092 192.541 140.429 192.744L140.504 193.358L140.578 193.972C142.27 193.766 143.902 193.508 145.457 193.197L145.336 192.59ZM135.641 193.796L135.604 193.178C134.022 193.274 132.402 193.328 130.753 193.341L130.758 193.96L130.763 194.578C132.432 194.565 134.074 194.511 135.678 194.414L135.641 193.796ZM125.867 193.879L125.892 193.261C124.289 193.196 122.671 193.094 121.046 192.955L120.993 193.572L120.94 194.188C122.584 194.329 124.221 194.432 125.842 194.497L125.867 193.879ZM116.133 193.045L116.213 192.431C114.608 192.22 113.004 191.973 111.412 191.689L111.303 192.298L111.194 192.907C112.806 193.195 114.428 193.445 116.052 193.658L116.133 193.045ZM106.517 191.323L106.655 190.72C105.063 190.355 103.492 189.951 101.951 189.508L101.781 190.103L101.61 190.698C103.173 191.147 104.766 191.556 106.378 191.926L106.517 191.323ZM97.1305 188.617L97.3373 188.033C95.7864 187.484 94.28 186.891 92.8288 186.256L92.5806 186.823L92.3324 187.389C93.8128 188.038 95.3469 188.641 96.9238 189.2L97.1305 188.617ZM88.1908 184.675L88.4877 184.132C87.0387 183.34 85.67 182.497 84.3951 181.603L84.0399 182.11L83.6848 182.617C85.0008 183.539 86.4088 184.406 87.8939 185.218L88.1908 184.675Z" fill="#396633"/>
<path d="M78.9249 106.871L52.2072 117.313L53.4356 138.81C57.824 141.398 60.9878 142.183 69.4048 140.959L98.2723 144.645C101.771 144.03 102.53 142.848 100.729 138.81C106.147 139.38 105.86 137.42 103.186 132.053C111.231 131.988 108.614 128.545 106.871 124.069C111.087 122.952 112.671 122.35 109.328 118.541C100.091 109.175 93.7528 106.039 78.9249 106.871Z" fill="#BFDDBB"/>
<path d="M114.632 108.304C114.632 108.305 114.633 108.306 114.634 108.307C114.635 108.308 114.636 108.31 114.635 108.311L114.634 108.314C114.634 108.314 114.634 108.315 114.634 108.316L114.634 108.32C114.635 108.321 114.633 108.322 114.632 108.321C114.632 108.321 114.631 108.321 114.631 108.322L92.7785 159.267C91.7209 161.733 89.2112 163.217 86.5987 162.719C79.5674 161.379 74.8215 159.058 69.0506 154.388C66.9101 152.655 66.2584 149.649 67.335 147.139L89.1468 96.2909C89.1512 96.2805 89.163 96.2758 89.1734 96.2803C89.1792 96.2828 89.1857 96.2825 89.1911 96.2795L93.4689 93.9401C95.1306 93.0313 97.1284 92.9805 98.872 93.8027L110.394 99.2359C112.307 100.138 113.663 101.971 113.988 104.096L114.632 108.304Z" fill="#5FAA55"/>
<path d="M77.0825 124.376C70.9172 131.043 66.9537 132.912 58.9635 132.975L75.2399 113.934C81.552 116.356 85.4516 116.79 92.7446 116.698C96.8349 118.839 98.1077 120.254 92.7446 124.376H77.0825Z" fill="#BFDDBB"/>
<path d="M54.0498 117.312H0V146.794L55.2782 139.424L54.0498 117.312Z" fill="#BFDDBB"/>
<path d="M103.8 69.7121L102.265 58.3494H112.399L110.864 69.7121H103.8Z" fill="#9FCC99"/>
<path d="M136.784 41.1516C150.454 41.1519 161.535 52.2337 161.535 65.9036V172.591H90.902C90.902 166.485 95.8518 161.535 101.958 161.535H118.386C119.4 160.868 120.247 160.024 120.998 158.883V66.5989C119.277 64.1855 117.606 62.4757 115.401 60.8059H100.784C96.683 60.8057 93.359 57.481 93.359 53.3801V48.5774C93.359 44.4765 96.683 41.1518 100.784 41.1516H136.784Z" fill="#BFDDBB"/>
<path d="M161.352 41.1516C175.022 41.1517 186.104 52.2336 186.104 65.9036V172.591H115.47C115.47 166.485 120.42 161.535 126.526 161.535H142.954C143.968 160.868 144.815 160.025 145.566 158.884V66.5979C143.845 64.1849 142.174 62.4756 139.969 60.8059H125.352C121.251 60.8056 117.927 57.481 117.927 53.3801V48.5774C117.927 44.4765 121.251 41.1519 125.352 41.1516H161.352Z" fill="#9FCC99"/>
<path d="M97.0761 89.1684C96.7654 87.1152 97.3529 86.3981 98.7332 85.3086L116.657 93.7814C116.831 95.5827 116.264 96.3548 115 97.6412C115.294 99.5066 114.788 100.297 113.343 101.501C105.87 99.6001 101.913 97.8392 95.4191 93.0283C95.4542 91.3063 95.7284 90.4301 97.0761 89.1684Z" fill="#4C8844"/>
<path d="M97.6582 87.2168C99.9498 88.6413 101.348 89.4423 105.336 90.902M114.549 100.115C110.636 98.7466 108.491 97.932 105.336 95.8156" stroke="#BFDDBB" stroke-width="1.23759" stroke-linecap="round"/>
</svg>
