<svg width="233" height="145" viewBox="0 0 233 145" fill="none" xmlns="http://www.w3.org/2000/svg">
<path d="M170.748 144.644V119.462H195.009L178.733 144.644H170.748Z" fill="#7FBB77"/>
<path d="M171.055 144.03L187.639 119.155H195.624L178.426 144.03H171.055Z" fill="#9FCC99"/>
<path d="M16.5835 144.337V119.155H40.8445L24.5682 144.337H16.5835Z" fill="#7FBB77"/>
<path d="M16.8907 143.723L33.4741 118.848H41.4587L24.2611 143.723H16.8907Z" fill="#9FCC99"/>
<rect x="6.10352e-05" y="108.714" width="208.829" height="11.6698" fill="#9FCC99"/>
<path d="M138.142 40.2063L163.444 63.0945L153.009 85.4885C147.037 86.3196 143.188 85.7663 134.345 80.7597L100.693 71.9973C96.9122 68.8315 96.876 67.3519 100.423 64.692C96.2555 60.3504 95.9887 58.8999 100.542 56.4037C93.5751 51.3087 97.2994 49.1307 99.8128 46.2648C96.7599 44.8862 94.8492 43.1323 99.4134 39.2871C113.636 33.3563 122.006 32.7986 138.142 40.2063Z" fill="#BFDDBB"/>
<path d="M97.8378 26.0319C97.8368 26.0335 97.835 26.0346 97.8331 26.0347C97.83 26.0348 97.8275 26.0375 97.8277 26.0407L97.8279 26.0459C97.8279 26.0464 97.8278 26.0469 97.8276 26.0474L97.8261 26.05C97.8257 26.0508 97.8263 26.0516 97.8271 26.0516C97.8277 26.0516 97.8282 26.052 97.8282 26.0526L100.661 90.6715C100.779 93.3699 102.63 95.7008 105.27 96.2548C114.311 98.1521 120.809 97.7379 129.855 95.0085C132.489 94.2138 134.189 91.6837 134.068 88.9384L131.241 24.4238C131.24 24.4106 131.229 24.4003 131.216 24.4006C131.209 24.4007 131.202 24.3976 131.197 24.3922L127.062 19.5903C125.826 18.1547 123.996 17.37 122.099 17.4616L105.69 18.2543C103.604 18.3551 101.705 19.5011 100.638 21.302L97.8378 26.0319Z" fill="#5FAA55"/>
<path d="M125.429 13.3381C126.641 11.2842 126.29 10.2609 125.215 8.49154L101.711 9.64919C100.757 11.4944 101.062 12.5673 101.925 14.4958C100.811 16.3564 101.039 17.4224 102.139 19.3423C111.249 20.6001 116.393 20.4617 125.643 18.1847C126.33 16.3321 126.395 15.2768 125.429 13.3381Z" fill="#4C8844"/>
<path d="M125.605 11C122.456 11.512 120.564 11.7519 115.514 11.5555M101.383 17.3332C106.31 17.5938 109.04 17.6682 113.441 16.7976" stroke="#BFDDBB" stroke-width="1.23759" stroke-linecap="round"/>
<path d="M132.806 59.6915C136.848 69.5161 140.466 73.2526 149.324 76.8327L139.26 49.3623C131.219 49.1707 126.7 47.9186 118.63 44.6135C113.179 45.0991 111.167 46.0482 115.391 52.8043L132.806 59.6915Z" fill="#BFDDBB"/>
<path d="M165.835 105.29V61.0267C165.835 60.1297 166.03 59.2435 166.406 58.4293L171.008 48.478C171.256 47.9413 171.385 47.3571 171.385 46.7659C171.385 44.5132 173.211 42.687 175.464 42.687H179.643C181.858 42.687 183.654 44.4827 183.654 46.6978C183.654 47.3324 183.805 47.958 184.093 48.5232L189.11 58.3386C189.556 59.2105 189.788 60.1757 189.788 61.1549V105.29C189.788 108.707 187.018 111.478 183.6 111.478H172.022C168.605 111.478 165.835 108.707 165.835 105.29Z" fill="#9FCC99"/>
<rect x="170.134" y="38.3877" width="14.7408" height="6.75622" rx="3.37811" fill="#7FBB77"/>
<path d="M232.475 78.0035L162.764 62.9556L152.015 85.3739L230.94 111.478L232.475 78.0035Z" fill="#BFDDBB"/>
<path d="M17.5047 106.518V59.7131C17.5047 58.8145 17.7004 57.9266 18.0783 57.1113L22.9431 46.6134C23.2043 46.0498 23.3396 45.436 23.3396 44.8148C23.3396 42.4523 25.2548 40.5371 27.6173 40.5371H32.0317C34.3547 40.5371 36.2379 42.4203 36.2379 44.7433C36.2379 45.4101 36.3964 46.0673 36.7004 46.6608L42.0066 57.0206C42.4538 57.8936 42.687 58.8605 42.687 59.8415V106.518C42.687 109.935 39.9166 112.706 36.4991 112.706H23.6926C20.2751 112.706 17.5047 109.935 17.5047 106.518Z" fill="#9FCC99"/>
<rect x="22.1112" y="36.2378" width="15.3551" height="6.75622" rx="3.37811" fill="#7FBB77"/>
<path d="M52.2072 102.805V64.8903C52.2072 63.4758 52.5103 62.0776 53.0962 60.7901L57.1188 51.9489C57.3521 51.4361 57.4729 50.8791 57.4729 50.3157C57.4729 48.1377 59.2385 46.3721 61.4165 46.3721H65.2344C67.3764 46.3721 69.1128 48.1085 69.1128 50.2504C69.1128 50.8555 69.2543 51.4522 69.5262 51.9929L73.8772 60.645C74.5712 62.0251 74.9327 63.5484 74.9327 65.0931V102.805C74.9327 108.273 70.5 112.706 65.032 112.706H62.1079C56.6399 112.706 52.2072 108.273 52.2072 102.805Z" fill="#9FCC99"/>
<rect x="56.5066" y="42.687" width="13.5124" height="6.14202" rx="3.07101" fill="#7FBB77"/>
</svg>
