<svg width="12" height="28" viewBox="0 0 12 28" fill="none" xmlns="http://www.w3.org/2000/svg">
<path d="M5.86176 1.67963e-06C5.34336 -9.0064e-05 4.82497 0.00357656 4.30663 0.0110015C3.64113 0.0220015 3.28363 0.327252 3.25888 0.823627C3.22588 1.4355 3.25201 2.04738 3.25201 2.70738H8.42613C8.42613 2.02813 8.45501 1.37913 8.41376 0.732877C8.38626 0.276377 8.00263 0.0206268 7.41551 0.0123768C6.89759 0.00412677 6.37967 1.67963e-06 5.86176 1.67963e-06ZM3.89413 3.17488C4.15126 3.80875 3.71676 4.12913 3.19151 4.43713C2.85443 4.63559 2.53839 4.86778 2.24826 5.13013C0.502007 6.72375 -0.342243 8.5085 0.317757 10.6109C0.436007 10.9863 0.664257 11.1416 1.21701 11.1347C4.06463 11.1072 6.91226 11.121 9.76126 11.121C11.2861 11.121 11.4223 11.0275 11.601 9.84088C11.6129 9.72946 11.6179 9.61741 11.6161 9.50538C11.591 8.51628 11.3169 7.54949 10.8192 6.69438C10.3214 5.83928 9.61615 5.12346 8.76851 4.61313C8.21851 4.22813 7.44576 3.93938 7.73038 3.17488H3.89413ZM4.14026 4.91425C4.18746 4.91228 4.23473 4.91274 4.28188 4.91563C3.56098 5.62674 2.91331 6.40846 2.34863 7.249C1.99029 8.10439 1.73504 8.9994 1.58826 9.91513C0.829257 8.2225 2.66901 4.98575 4.14026 4.91425ZM0.771507 11.5129V20.8725H10.9561V11.5129H0.771507ZM2.03651 12.4919L2.27988 12.496C2.33235 12.6581 2.36693 12.8255 2.38301 12.9951C2.38988 15.0824 2.38713 17.171 2.38576 19.2583C2.39739 19.3697 2.38948 19.4823 2.36238 19.591C2.33488 19.6625 2.22626 19.7147 2.15476 19.7766C2.07638 19.7216 1.95126 19.6749 1.92926 19.6061C1.90303 19.4782 1.89515 19.3472 1.90588 19.217C1.90588 17.1655 1.90176 15.1168 1.91001 13.0653C1.93159 12.8702 1.974 12.6779 2.03651 12.4919ZM10.6468 21.307C9.05726 21.3359 7.46363 21.3194 5.87276 21.3194H1.46038C0.361756 21.3194 0.0633822 21.4995 0.0317572 22.3671C-0.0105857 23.5969 -0.0105857 24.8278 0.0317572 26.0576C0.0537572 26.7011 0.559757 27.1631 1.35038 27.3061C2.09288 27.4381 2.93301 27.632 3.48851 26.9445C3.72913 26.6475 4.00688 26.6668 4.30526 26.917C4.81263 27.3446 6.37188 27.6829 6.82701 27.3089C7.58463 26.6874 7.94901 26.8496 8.77263 27.2965C9.04305 27.4253 9.33791 27.4946 9.63737 27.4999C9.93683 27.5051 10.2339 27.4461 10.5087 27.3269C10.7835 27.2077 11.0295 27.031 11.2302 26.8088C11.431 26.5865 11.5818 26.3238 11.6725 26.0384C11.7346 24.8099 11.7332 23.579 11.6684 22.3506C11.6353 22.1451 11.5714 21.9458 11.4786 21.7594C11.3618 21.4308 11.1266 21.2974 10.6468 21.307ZM1.47963 22.3328C1.57038 22.4441 1.73126 22.5514 1.73676 22.6655C1.76563 23.1866 1.75188 23.7091 1.75188 24.233C1.75188 24.7349 1.76288 25.2409 1.73951 25.7441C1.73538 25.8473 1.59376 25.9463 1.51538 26.048C1.41363 25.9463 1.22388 25.8459 1.22251 25.7441C1.2012 24.7189 1.20074 23.6934 1.22113 22.6683C1.22113 22.5569 1.39026 22.4441 1.47963 22.3328Z" fill="#396633"/>
</svg>