<svg width="120" height="120" viewBox="0 0 120 120" fill="none" xmlns="http://www.w3.org/2000/svg">
<path d="M50 25H70V15C70 13.6739 69.4732 12.4021 68.5355 11.4645C67.5979 10.5268 66.3261 10 65 10H55C53.6739 10 52.4021 10.5268 51.4645 11.4645C50.5268 12.4021 50 13.6739 50 15V25Z" stroke="#5FAA55" stroke-width="8" stroke-linecap="round" stroke-linejoin="round"/>
<path d="M70 17.5C70 25.63 72.535 33.56 77.25 40.185L77.5 40.535C82.3768 47.3895 84.9982 55.5926 85 64.005V95C85 97.6522 83.9464 100.196 82.0711 102.071C80.1957 103.946 77.6522 105 75 105H45C42.3478 105 39.8043 103.946 37.9289 102.071C36.0536 100.196 35 97.6522 35 95V64C35 55.59 37.62 47.39 42.5 40.535L42.75 40.185C47.4668 33.5612 50.001 25.6316 50 17.5" stroke="#5FAA55" stroke-width="8" stroke-linecap="round" stroke-linejoin="round"/>
<path d="M35 74.0152C37 73.1552 38.7284 71.7673 40 70.0002C41.1359 68.4177 42.6399 67.1356 44.3821 66.2644C46.1244 65.3933 48.0525 64.9594 50 65.0002C51.9475 64.9594 53.8756 65.3933 55.6179 66.2644C57.3601 67.1356 58.8641 68.4177 60 70.0002C61.1359 71.5827 62.6399 72.8648 64.3821 73.7359C66.1244 74.6071 68.0525 75.041 70 75.0002C71.9475 75.041 73.8756 74.6071 75.6179 73.7359C77.3601 72.8648 78.8641 71.5827 80 70.0002C81.2703 68.2294 82.9988 66.8379 85 65.9752" stroke="#5FAA55" stroke-width="8" stroke-linecap="round" stroke-linejoin="round"/>
</svg>
