<svg width="120" height="120" viewBox="0 0 120 120" fill="none" xmlns="http://www.w3.org/2000/svg">
<path d="M82.3843 62.6396C92.64 62.6396 100.997 53.5046 100.997 42.3896C100.997 31.4011 92.6829 22.6968 82.3843 22.6968C72.1714 22.6968 63.7693 31.5296 63.7693 42.4754C63.8121 53.5475 72.1714 62.6396 82.3843 62.6396ZM32.7471 63.5868C41.6229 63.5868 48.9043 55.6154 48.9043 45.8353C48.9043 36.2696 41.7086 28.5575 32.7471 28.5575C23.8714 28.5575 16.5471 36.4004 16.59 45.9211C16.6329 55.6604 23.8714 63.5868 32.7471 63.5868ZM82.3843 56.1339C76.0929 56.1339 70.7057 50.1018 70.7057 42.4754C70.7057 34.9754 76.0071 29.2046 82.3843 29.2046C88.8043 29.2046 94.0607 34.8918 94.0607 42.3875C94.0607 50.0161 88.7614 56.1339 82.3843 56.1339ZM32.7471 57.1668C27.4907 57.1668 23.01 52.1268 23.01 45.9211C23.01 39.8461 27.4457 34.9775 32.7471 34.9775C38.175 34.9775 42.5271 39.7603 42.5271 45.8353C42.5271 52.1268 38.0464 57.1668 32.7471 57.1668ZM8.79 103.099H42.615C40.545 101.935 38.9507 99.3489 39.2529 96.7218H7.71429C6.85286 96.7218 6.42214 96.3789 6.42214 95.5582C6.42214 84.8739 18.615 74.8775 32.7064 74.8775C38.1343 74.8775 43.0029 76.1696 47.1836 78.6254C48.5704 76.8696 50.2113 75.3305 52.0521 74.0589C46.4936 70.3946 39.8164 68.5004 32.7064 68.5004C14.6507 68.5004 0 81.5975 0 95.9461C0 100.729 2.92929 103.099 8.79 103.099ZM55.3243 103.099H109.444C116.595 103.099 120 100.945 120 96.2054C120 84.9168 105.737 68.5839 82.3843 68.5839C58.9864 68.5839 44.7257 84.9168 44.7257 96.2054C44.7257 100.945 48.1286 103.099 55.3243 103.099ZM53.2564 96.5932C52.1357 96.5932 51.6621 96.2932 51.6621 95.3868C51.6621 88.3196 62.6057 75.0939 82.3843 75.0939C102.12 75.0939 113.061 88.3196 113.061 95.3868C113.061 96.2911 112.633 96.5932 111.51 96.5932H53.2564Z" fill="#5FAA55"/>
</svg>
