<svg width="40" height="29" viewBox="0 0 40 29" fill="none" xmlns="http://www.w3.org/2000/svg">
<path fill-rule="evenodd" clip-rule="evenodd" d="M19.8208 6.25138C16.1617 2.58951 11.5886 1.05669 8.01388 0.429506C6.52778 0.166502 5.02292 0.0235401 3.51388 0.00200641C2.94356 -0.0056106 2.37314 0.00846169 1.80388 0.0441935L1.69982 0.0526311H1.6717L1.66045 0.0554441H1.65482L0.586072 0.156694L0.40326 1.21419L0.400447 1.22826L0.394822 1.26201L0.372322 1.38857L0.307634 1.84701C0.00399014 4.2089 -0.0751135 6.59425 0.0713844 8.97107C0.347009 13.2208 1.50013 18.6292 5.25763 22.3867C8.93076 26.0598 13.4083 27.4914 16.9014 28.0145C18.4136 28.2414 19.9433 28.3309 21.4717 28.2817V25.9473L10.6351 15.1051L12.6264 13.1139L21.4745 21.9676V8.27919C20.9908 7.54794 20.4395 6.87013 19.8208 6.25138ZM24.287 12.1436V22.4373L29.0345 18.6404L30.7895 20.8342L24.287 26.0373V28.2536C25.3154 28.2658 26.3434 28.2076 27.3639 28.0792C29.9204 27.7501 33.242 26.8361 35.7114 24.3667C38.2033 21.872 39.1623 18.1061 39.542 15.2008C39.7657 13.4496 39.8391 11.6825 39.7614 9.91888L39.7558 9.82888V9.80076L39.7529 9.79513L39.6686 8.66169L38.5492 8.50138H38.5379L38.5126 8.49575L38.4283 8.48451L38.1161 8.44794C36.5442 8.28887 34.9617 8.26253 33.3854 8.36919C30.6376 8.57169 27.0151 9.30013 24.6808 11.7329L24.5683 11.8454L24.287 12.1436Z" fill="#396633"/>
</svg>
