<svg width="120" height="120" viewBox="0 0 120 120" fill="none" xmlns="http://www.w3.org/2000/svg">
<path d="M19.9999 100V90H33.7499L31.7499 88.25C27.6666 84.1667 24.6883 79.73 22.8149 74.94C20.9416 70.15 20.0033 65.2533 19.9999 60.25C19.9999 51 22.7716 42.7717 28.3149 35.565C33.8583 28.3583 41.0866 23.5867 49.9999 21.25V31.75C43.9999 33.9167 39.1666 37.605 35.4999 42.815C31.8333 48.025 29.9999 53.8367 29.9999 60.25C29.9999 64 30.7083 67.6467 32.1249 71.19C33.5416 74.7333 35.7499 78.0033 38.7499 81L39.9999 82.25V70H49.9999V100H19.9999ZM69.9999 98.75V88.25C75.9999 86.0833 80.8333 82.3967 84.4999 77.19C88.1666 71.9833 89.9999 66.17 89.9999 59.75C89.9999 56 89.2916 52.355 87.8749 48.815C86.4583 45.275 84.2499 42.0033 81.2499 39L79.9999 37.75V50H69.9999V20H99.9999V30H86.2499L88.2499 31.75C92.3333 35.8333 95.3133 40.2717 97.1899 45.065C99.0666 49.8583 100.003 54.7533 99.9999 59.75C99.9999 69 97.2299 77.23 91.6899 84.44C86.1499 91.65 78.9199 96.42 69.9999 98.75Z" fill="#5FAA55"/>
</svg>
