<svg width="120" height="120" viewBox="0 0 120 120" fill="none" xmlns="http://www.w3.org/2000/svg">
<path d="M15 15L105 105M20 35H35M55 35H100M50 55V85M70 70V85M25 35L30 95C30 97.6522 31.0536 100.196 32.9289 102.071C34.8043 103.946 37.3478 105 40 105H80C82.6522 105 85.1957 103.946 87.0711 102.071C88.9464 100.196 90 97.6522 90 95L90.385 90.385M91.92 71.865L95 35M45 25V20C45 18.6739 45.5268 17.4021 46.4645 16.4645C47.4021 15.5268 48.6739 15 50 15H70C71.3261 15 72.5979 15.5268 73.5355 16.4645C74.4732 17.4021 75 18.6739 75 20V35" stroke="#5FAA55" stroke-width="10" stroke-linecap="round" stroke-linejoin="round"/>
</svg>
